<?xml version="1.0" encoding="utf-8"?>
<!-- Generator: Adobe Illustrator 19.0.0, SVG Export Plug-In . SVG Version: 6.00 Build 0)  -->
<svg version="1.1" id="Layer_1" xmlns="http://www.w3.org/2000/svg" xmlns:xlink="http://www.w3.org/1999/xlink" x="0px" y="0px"
	 viewBox="-538 243.7 841.9 595.3" style="enable-background:new -538 243.7 841.9 595.3;" xml:space="preserve">
<style type="text/css">
	.st0{fill:#FFFFFF;}
</style>
<g id="ojcqAw.tif">
	<g id="XMLID_584_">
		<path id="XMLID_806_" d="M-413.8,756.6c8-13.6,15.9-26.8,23.7-40.1c37.9-64.6,75.8-129.3,113.7-193.9
			c27.3-46.4,54.8-92.8,82.2-139.1c15.2-25.8,30.4-51.5,45.7-77.3c0.8-1.3,1.7-2.6,2.6-3.8c6.7-9.4,8.5-10.6,18.7-4.4
			c11.5,7,21.7,16,32.9,23.5c17.4,11.7,27.5,29.1,37,46.7c72.4,134.7,149,267.1,227.4,398.4c4.4,7.5,8.6,15.1,12.9,22.7
			c0.2,0.3,0,0.7,0,1.7c-2,0-4,0-6.1,0c-177.9,0-355.8,0-533.7-0.1c-3.6,0-7.6-1.4-10.6-3.3c-14-8.9-27.8-18.3-41.6-27.5
			C-410.4,759-411.9,757.9-413.8,756.6z M-104.2,480.8c-40.1,68.8-79.5,136.3-119.2,204.4c78.6,0,156,0,233.3,0
			C-28.1,617.2-65.7,549.7-104.2,480.8z M-295.6,685.9c17,0,33.5,0.1,49.9-0.2c1.9,0,4.5-2.1,5.5-3.9
			C-200.1,614-160.4,546-120,478.3c5.6-9.3,6.8-16.8-0.2-25.2c-1.6-1.9-2.5-4.3-3.7-6.5c-4.9-8.7-9.8-17.3-15.5-27.5
			C-191.9,508.8-243.7,597.1-295.6,685.9z M-369.5,756.7c-0.1,0.6-0.2,1.1-0.4,1.7c2.3,1.2,4.6,2.6,7,3.6
			c13.7,5.9,28.2,6.2,42.7,6.2c151-0.5,302-1.1,453.1-1.6c1.6,0,3.2-0.2,4.9-0.3c-2.6-7.2-6.8-9.7-14.4-9.7
			c-161.7,0.3-323.3,0.2-485,0.2C-364.2,756.7-366.8,756.7-369.5,756.7z"/>
		<path id="XMLID_805_" class="st0" d="M-104.2,480.8c38.5,69,76.2,136.4,114.1,204.4c-77.4,0-154.7,0-233.3,0
			C-183.8,617.1-144.4,549.6-104.2,480.8z"/>
		<path id="XMLID_804_" class="st0" d="M-295.6,685.9c52-88.8,103.7-177.2,156.2-266.8c5.7,10.2,10.6,18.8,15.5,27.5
			c1.2,2.2,2.2,4.6,3.7,6.5c7,8.4,5.8,15.9,0.2,25.2C-160.4,546-200.1,614-240.2,681.9c-1.1,1.8-3.6,3.8-5.5,3.9
			C-262.2,686.1-278.6,685.9-295.6,685.9z"/>
		<path id="XMLID_803_" class="st0" d="M-369.5,756.7c2.6,0,5.3,0,7.9,0c161.7,0,323.3,0.1,485-0.2c7.6,0,11.9,2.5,14.4,9.7
			c-1.7,0.1-3.3,0.3-4.9,0.3c-151,0.6-302,1.2-453.1,1.6c-14.5,0-29-0.3-42.7-6.2c-2.4-1-4.7-2.4-7-3.6
			C-369.7,757.9-369.6,757.3-369.5,756.7z"/>
	</g>
</g>
</svg>
